<svg width="705" height="467" viewBox="0 0 705 467" fill="none" xmlns="http://www.w3.org/2000/svg">
<rect width="1086.34" height="1026.1" fill="black" fill-opacity="0" transform="translate(0 -560)"/>
<path opacity="0.8" d="M702.364 -314.811C482.253 -394.635 369.441 -496.651 340.548 -537.681L13.7481 -7.14096C67.8831 49.4381 219.401 175.296 392.392 226.095C565.383 276.894 700.072 392.386 745.793 443.782L1072.59 -86.758C1040.9 -129.516 922.475 -234.987 702.364 -314.811Z" fill="#BE0042" fill-opacity="0.06"/>
<path d="M669.324 -288.214C470.222 -360.419 368.178 -452.698 342.043 -489.811L46.4359 -9.91089C95.4038 41.2677 232.459 155.112 388.939 201.063C545.418 247.013 667.251 351.481 708.608 397.972L1004.22 -81.9286C975.544 -120.605 868.425 -216.009 669.324 -288.214Z" fill="#BE0042" fill-opacity="0.06"/>
</svg>
