<svg width="1368" height="690" viewBox="0 0 1368 690" fill="none" xmlns="http://www.w3.org/2000/svg">
<mask id="mask0" mask-type="alpha" maskUnits="userSpaceOnUse" x="-1" y="592" width="1369" height="100">
<rect x="-0.131805" y="592.361" width="1368" height="99" fill="#C4C4C4"/>
</mask>
<g mask="url(#mask0)">
<path opacity="0.8" d="M638.559 1843.72C1073.62 1793.92 1355.57 1876.38 1442.17 1923.83L1461.62 702.949C1318.96 649.909 951.038 558.885 620.636 619.116C290.233 679.348 -40.3139 592.05 -164.287 540.872L-183.741 1761.75C-90.9152 1809.83 203.501 1893.52 638.559 1843.72Z" fill="#BE0042" fill-opacity="0.06"/>
<path d="M675.521 1762.78C1069.33 1705.42 1327.51 1773.62 1407.37 1814.89L1393.52 693.013C1262.59 648.108 926.118 574.337 627.625 638.487C329.132 702.637 26.6979 631.289 -87.2076 587.596L-73.3516 1709.47C12.1875 1751.14 281.717 1820.15 675.521 1762.78Z" fill="#BE0042" fill-opacity="0.06"/>
</g>
</svg>
