<svg width="21" height="20" viewBox="0 0 21 20" fill="none" xmlns="http://www.w3.org/2000/svg">
<path fill-rule="evenodd" clip-rule="evenodd" d="M5.05261 2.33081C5.02344 1.00781 4.07727 0 2.54089 0C1.00446 0 0 1.00781 0 2.33081C0 3.62646 0.974792 4.66333 2.4826 4.66333H2.51129C4.07727 4.66333 5.05261 3.62646 5.05261 2.33081ZM4.75677 6.50513H0.265564V19.9995H4.75677V6.50513ZM15.7827 6.18848C18.7382 6.18848 20.9539 8.11768 20.9539 12.2625L20.9537 19.9995H16.4626V12.7803C16.4626 10.9668 15.8127 9.72949 14.1868 9.72949C12.946 9.72949 12.207 10.5637 11.8824 11.3694C11.7637 11.658 11.7345 12.0603 11.7345 12.4636V20H7.24274C7.24274 20 7.30194 7.77197 7.24274 6.50562H11.7345V8.41699C12.3306 7.49829 13.3982 6.18848 15.7827 6.18848Z" fill="#465362"/>
</svg>
