<svg width="20" height="20" viewBox="0 0 20 20" fill="none" xmlns="http://www.w3.org/2000/svg">
<path d="M0 20V0H20V20H0ZM4.89143 12.7846C4.89143 13.1017 4.876 13.1771 4.70971 13.3731L3.30571 15.0789V15.3051H7.29086V15.0789L5.88743 13.3731C5.72114 13.1771 5.69086 13.0863 5.69086 12.7846V7.66857L9.192 15.3051H9.6L12.6034 7.66857V13.7509C12.6034 13.9166 12.6034 13.9463 12.4977 14.0526L11.4417 15.0789V15.3051H16.6931V15.0789L15.652 14.0526C15.5469 13.9463 15.532 13.9166 15.532 13.7509V6.24971C15.532 6.08343 15.5469 6.05314 15.652 5.948L16.6937 4.92114V4.69486H12.996L10.3549 11.2903L7.38171 4.69486H3.50171V4.92114L4.72457 6.42971C4.86114 6.59657 4.89086 6.64114 4.89086 6.86857V12.7846H4.89143Z" fill="#465362"/>
</svg>
