<svg width="25" height="20" viewBox="0 0 25 20" fill="none" xmlns="http://www.w3.org/2000/svg">
<path fill-rule="evenodd" clip-rule="evenodd" d="M11.7513 5.32031L11.8037 6.18537L10.9294 6.07944C7.74673 5.6734 4.9663 4.29637 2.60556 1.98367L1.45142 0.836143L1.15414 1.68355C0.52461 3.57255 0.92681 5.56747 2.23833 6.90919C2.93781 7.65067 2.78043 7.75659 1.57383 7.31524C1.15414 7.17401 0.786914 7.06808 0.75194 7.12104C0.629531 7.24462 1.04922 8.85116 1.38147 9.48671C1.83613 10.3694 2.76294 11.2345 3.77719 11.7464L4.63405 12.1525L3.61981 12.1701C2.64053 12.1701 2.60556 12.1878 2.71048 12.5585C3.06022 13.7061 4.44169 14.9242 5.98055 15.4538L7.06474 15.8246L6.12044 16.3895C4.72149 17.2016 3.07771 17.6606 1.43393 17.6959C0.647018 17.7136 0 17.7842 0 17.8371C0 18.0137 2.13341 19.0023 3.37499 19.3907C7.09971 20.5382 11.5239 20.0439 14.8464 18.0843C17.2072 16.6896 19.5679 13.9179 20.6696 11.2345C21.2642 9.80448 21.8587 7.19166 21.8587 5.93821C21.8587 5.12612 21.9112 5.02019 22.8905 4.04921C23.4675 3.48427 24.0096 2.86638 24.1145 2.68984C24.2894 2.35441 24.2719 2.35441 23.3801 2.65453C21.8937 3.18415 21.6839 3.11354 22.4183 2.3191C22.9604 1.75416 23.6074 0.730218 23.6074 0.430096C23.6074 0.377134 23.3451 0.465405 23.0478 0.624293C22.7331 0.800835 22.0336 1.06565 21.509 1.22454L20.5647 1.52466L19.7078 0.942069C19.2357 0.624293 18.5712 0.271208 18.2214 0.165283C17.3296 -0.0818758 15.9656 -0.0465674 15.1612 0.2359C12.9753 1.03034 11.5939 3.07823 11.7513 5.32031Z" fill="#465362"/>
</svg>
